<svg width="135" height="22" viewBox="0 0 135 22" fill="none" xmlns="http://www.w3.org/2000/svg">
<g clip-path="url(#clip0_170_245)">
<path d="M31.1838 19.9912L31.137 13.0715C31.1355 12.8394 30.8911 12.6893 30.6834 12.7928L16.7973 19.7125C16.5008 19.8603 16.6059 20.307 16.9372 20.307H30.8701C31.0442 20.307 31.185 20.1653 31.1838 19.9912Z" fill="url(#paint0_linear_170_245)"/>
<path d="M31.0814 4.61988V8.92504C31.0814 9.04312 31.0151 9.1512 30.9098 9.20471L9.13529 20.273C9.09125 20.2954 9.04254 20.307 8.99313 20.307H0.53114C0.275288 20.307 0.127022 20.0173 0.276713 19.8098L5.15452 13.0485C5.18376 13.0079 5.22225 12.975 5.2668 12.9523L27.2462 1.78161C27.3533 1.7272 27.482 1.73868 27.5777 1.81117L30.957 4.36976C31.0353 4.42906 31.0814 4.52163 31.0814 4.61988Z" fill="url(#paint1_linear_170_245)"/>
<path d="M46.3595 20.3071H38.8441V1.652L46.3595 1.652C47.6032 1.652 48.7758 1.88297 49.8773 2.34491C50.9966 2.80684 51.9649 3.44645 52.7822 4.26372C53.5995 5.06322 54.2479 6.04928 54.7276 7.22189C55.2074 8.37673 55.4472 9.62041 55.4472 10.9529C55.4472 12.3032 55.2074 13.5646 54.7276 14.7372C54.2479 15.8921 53.5995 16.8781 52.7822 17.6954C51.9649 18.5127 50.9966 19.1523 49.8773 19.6142C48.7758 20.0762 47.6032 20.3071 46.3595 20.3071ZM46.093 5.54293L42.8417 5.54293V16.4162H46.093C47.5854 16.4162 48.8468 15.9098 49.8773 14.8971C50.9078 13.8667 51.423 12.5519 51.423 10.9529C51.423 9.37167 50.9078 8.07469 49.8773 7.06199C48.8468 6.04928 47.5854 5.54293 46.093 5.54293ZM61.6582 8.9808H70.3461V12.925H61.6582V16.3629H70.9857V20.3071L57.6606 20.3071V1.652L70.9857 1.652V5.59623H61.6582V8.9808ZM79.4315 12.9517C77.3706 12.6141 75.7716 11.9301 74.6345 10.8996C73.4974 9.85137 72.9289 8.54551 72.9289 6.98204C72.9289 5.32973 73.533 3.97057 74.7411 2.90456C75.9492 1.83855 77.495 1.30555 79.3782 1.30555C81.0128 1.30555 82.4874 1.72307 83.8022 2.55811C85.1169 3.39315 86.0585 4.51245 86.6271 5.91603L82.7628 7.32849C82.4785 6.65335 82.0433 6.12035 81.4569 5.72948C80.8706 5.32084 80.2133 5.11652 79.4848 5.11652C78.7919 5.11652 78.2234 5.28531 77.7792 5.62288C77.3351 5.96045 77.113 6.39573 77.113 6.92874C77.113 7.42621 77.3528 7.83484 77.8325 8.15464C78.33 8.45668 79.1117 8.70542 80.1777 8.90085C82.2565 9.27395 83.8821 10.0024 85.0547 11.0862C86.2273 12.1699 86.8136 13.4847 86.8136 15.0304C86.8136 16.6472 86.1829 17.9797 84.9215 19.0279C83.6778 20.0762 82.0788 20.6003 80.1244 20.6003C78.4899 20.6003 76.9975 20.2094 75.6472 19.4277C74.3147 18.6282 73.3553 17.5622 72.769 16.2297L76.6599 14.3908C76.962 15.137 77.415 15.7233 78.0191 16.1497C78.6231 16.5761 79.3072 16.7893 80.0711 16.7893C80.7996 16.7893 81.4036 16.6205 81.8834 16.283C82.3631 15.9276 82.6029 15.4834 82.6029 14.9504C82.6029 13.9555 81.5458 13.2892 79.4315 12.9517ZM93.019 20.3071H89.0214V1.652L93.019 1.652V20.3071ZM100.852 6.76884C99.7685 7.85261 99.2266 9.2473 99.2266 10.9529C99.2266 12.6585 99.7685 14.0621 100.852 15.1636C101.954 16.2474 103.295 16.7893 104.876 16.7893C106.173 16.7893 107.302 16.4429 108.261 15.7499C109.22 15.057 109.842 14.1421 110.127 13.005H103.73V9.4072H114.444C114.497 9.83361 114.524 10.4732 114.524 11.326C114.524 13.1205 114.089 14.7461 113.218 16.203C112.365 17.6421 111.201 18.7703 109.727 19.5876C108.252 20.3871 106.635 20.7868 104.876 20.7868C103.118 20.7868 101.501 20.3782 100.026 19.5609C98.5514 18.7259 97.3788 17.5533 96.5083 16.0431C95.6555 14.5329 95.2291 12.8362 95.2291 10.9529C95.2291 9.06963 95.6555 7.37291 96.5083 5.86273C97.3788 4.35255 98.5514 3.18883 100.026 2.37155C101.501 1.53652 103.118 1.119 104.876 1.119C106.742 1.119 108.448 1.58982 109.993 2.53146C111.557 3.4731 112.729 4.74342 113.511 6.34243L109.887 8.20795C109.425 7.24854 108.75 6.49345 107.861 5.94268C106.973 5.39191 105.978 5.11652 104.876 5.11652C103.295 5.11652 101.954 5.66729 100.852 6.76884ZM116.765 20.3071V1.652L121.322 1.652L128.571 13.9111V1.652L132.568 1.652V20.3071H128.011L120.762 7.99474V20.3071H116.765Z" fill="#003368"/>
</g>
<defs>
<linearGradient id="paint0_linear_170_245" x1="31.029" y1="4.51618" x2="0.231657" y2="20.1502" gradientUnits="userSpaceOnUse">
<stop stop-color="#9EDBF4"/>
<stop offset="1" stop-color="#15A6DA"/>
</linearGradient>
<linearGradient id="paint1_linear_170_245" x1="31.0291" y1="4.51617" x2="0.231665" y2="20.1502" gradientUnits="userSpaceOnUse">
<stop stop-color="#9EDBF4"/>
<stop offset="1" stop-color="#15A6DA"/>
</linearGradient>
<clipPath id="clip0_170_245">
<rect width="134.241" height="21" fill="white" transform="translate(0.216858 0.307129)"/>
</clipPath>
</defs>
</svg>
