<svg width="135" height="21" viewBox="0 0 135 21" fill="none" xmlns="http://www.w3.org/2000/svg">
<path d="M30.9669 19.6841L30.9202 12.7644C30.9186 12.5323 30.6743 12.3822 30.4665 12.4857L16.5804 19.4054C16.2839 19.5532 16.3891 19.9999 16.7204 19.9999H30.6532C30.8273 19.9999 30.9681 19.8582 30.9669 19.6841Z" fill="url(#paint0_linear_170_260)"/>
<path d="M30.8645 4.31275V8.61791C30.8645 8.736 30.7982 8.84408 30.6929 8.89758L8.91843 19.9659C8.87439 19.9882 8.82568 19.9999 8.77627 19.9999H0.314282C0.0584297 19.9999 -0.0898356 19.7101 0.0598555 19.5026L4.93766 12.7413C4.9669 12.7008 5.0054 12.6678 5.04995 12.6452L27.0294 1.47448C27.1364 1.42007 27.2651 1.43155 27.3609 1.50404L30.7402 4.06263C30.8185 4.12193 30.8645 4.2145 30.8645 4.31275Z" fill="url(#paint1_linear_170_260)"/>
<path d="M46.1426 20H38.6273V1.34487L46.1426 1.34487C47.3863 1.34487 48.5589 1.57584 49.6605 2.03778C50.7798 2.49971 51.7481 3.13932 52.5653 3.95659C53.3826 4.75609 54.0311 5.74215 54.5108 6.91476C54.9905 8.0696 55.2303 9.31328 55.2303 10.6458C55.2303 11.9961 54.9905 13.2575 54.5108 14.4301C54.0311 15.585 53.3826 16.571 52.5653 17.3883C51.7481 18.2056 50.7798 18.8452 49.6605 19.3071C48.5589 19.769 47.3863 20 46.1426 20ZM45.8761 5.2358L42.6248 5.2358V16.1091H45.8761C47.3685 16.1091 48.63 15.6027 49.6605 14.59C50.6909 13.5595 51.2062 12.2448 51.2062 10.6458C51.2062 9.06454 50.6909 7.76757 49.6605 6.75486C48.63 5.74215 47.3685 5.2358 45.8761 5.2358ZM61.4413 8.67367H70.1293V12.6179H61.4413V16.0558H70.7689V20L57.4438 20V1.34487L70.7689 1.34487V5.2891H61.4413V8.67367ZM79.2147 12.6445C77.1537 12.307 75.5547 11.623 74.4176 10.5925C73.2806 9.54424 72.712 8.23839 72.712 6.67491C72.712 5.0226 73.3161 3.66344 74.5242 2.59743C75.7324 1.53142 77.2781 0.998418 79.1614 0.998418C80.7959 0.998418 82.2706 1.41594 83.5853 2.25098C84.9001 3.08602 85.8417 4.20532 86.4102 5.6089L82.546 7.02136C82.2617 6.34622 81.8264 5.81322 81.2401 5.42235C80.6538 5.01371 79.9964 4.80939 79.268 4.80939C78.5751 4.80939 78.0065 4.97818 77.5624 5.31575C77.1182 5.65332 76.8961 6.0886 76.8961 6.62161C76.8961 7.11908 77.136 7.52771 77.6157 7.84752C78.1131 8.14955 78.8949 8.39829 79.9609 8.59372C82.0396 8.96682 83.6653 9.69526 84.8379 10.779C86.0105 11.8628 86.5968 13.1776 86.5968 14.7233C86.5968 16.34 85.9661 17.6726 84.7046 18.7208C83.4609 19.769 81.8619 20.2932 79.9076 20.2932C78.273 20.2932 76.7806 19.9023 75.4304 19.1205C74.0978 18.321 73.1384 17.255 72.5521 15.9225L76.4431 14.0837C76.7451 14.8299 77.1981 15.4162 77.8022 15.8426C78.4063 16.269 79.0903 16.4822 79.8543 16.4822C80.5827 16.4822 81.1868 16.3134 81.6665 15.9758C82.1462 15.6205 82.386 15.1763 82.386 14.6433C82.386 13.6484 81.3289 12.9821 79.2147 12.6445ZM92.8021 20H88.8046V1.34487L92.8021 1.34487V20ZM100.635 6.46171C99.5516 7.54548 99.0097 8.94017 99.0097 10.6458C99.0097 12.3514 99.5516 13.755 100.635 14.8565C101.737 15.9403 103.078 16.4822 104.66 16.4822C105.957 16.4822 107.085 16.1357 108.044 15.4428C109.004 14.7499 109.625 13.8349 109.91 12.6978H103.514V9.10008H114.227C114.28 9.52648 114.307 10.1661 114.307 11.0189C114.307 12.8133 113.872 14.439 113.001 15.8959C112.148 17.335 110.985 18.4632 109.51 19.2804C108.035 20.08 106.418 20.4797 104.66 20.4797C102.901 20.4797 101.284 20.0711 99.8092 19.2538C98.3346 18.4188 97.162 17.2461 96.2914 15.736C95.4386 14.2258 95.0122 12.5291 95.0122 10.6458C95.0122 8.76251 95.4386 7.06578 96.2914 5.5556C97.162 4.04542 98.3346 2.8817 99.8092 2.06443C101.284 1.22939 102.901 0.811868 104.66 0.811868C106.525 0.811868 108.231 1.28269 109.776 2.22433C111.34 3.16597 112.512 4.43629 113.294 6.0353L109.67 7.90082C109.208 6.94141 108.533 6.18632 107.644 5.63555C106.756 5.08478 105.761 4.80939 104.66 4.80939C103.078 4.80939 101.737 5.36017 100.635 6.46171ZM116.548 20V1.34487L121.105 1.34487L128.354 13.604V1.34487L132.351 1.34487V20H127.794L120.545 7.68762V20H116.548Z" fill="#9EDBF4"/>
<defs>
<linearGradient id="paint0_linear_170_260" x1="30.8122" y1="4.20905" x2="0.014799" y2="19.843" gradientUnits="userSpaceOnUse">
<stop stop-color="#9EDBF4"/>
<stop offset="1" stop-color="#15A6DA"/>
</linearGradient>
<linearGradient id="paint1_linear_170_260" x1="30.8122" y1="4.20904" x2="0.0148069" y2="19.843" gradientUnits="userSpaceOnUse">
<stop stop-color="#9EDBF4"/>
<stop offset="1" stop-color="#15A6DA"/>
</linearGradient>
</defs>
</svg>
