<svg width="354" height="63" viewBox="0 0 354 63" fill="none" xmlns="http://www.w3.org/2000/svg">
<path d="M88.3288 25.5974L88.5594 50.9507C88.5637 51.4272 89.1724 51.6235 89.4544 51.2394L119.876 9.79185C120.116 9.46459 119.883 9.0032 119.477 9.00318L68.0883 9.00049C67.6126 9.00046 67.4102 9.60568 67.7902 9.89183L88.1313 25.206C88.2544 25.2987 88.3274 25.4433 88.3288 25.5974Z" fill="#003368"/>
<path d="M88.3288 25.5974L88.5594 50.9507C88.5636 51.4137 89.1384 51.6121 89.4296 51.2707C89.4468 51.2505 89.4605 51.2275 89.4725 51.2039L107.376 16.1787C107.388 16.1551 107.402 16.1327 107.416 16.1102C107.611 15.797 107.402 15.3843 107.034 15.3561C107.008 15.354 106.981 15.3524 106.955 15.3481L68.128 9.00697C68.1016 9.00266 68.0748 8.99999 68.0481 9.00196C67.6014 9.03489 67.4211 9.61388 67.7902 9.89183L88.1313 25.206C88.2544 25.2987 88.3274 25.4433 88.3288 25.5974Z" fill="#15A6DA"/>
<path d="M88.3288 25.5974L88.5594 50.9507C88.5635 51.4037 89.1138 51.6035 89.4104 51.292C89.4417 51.2591 89.4625 51.2178 89.4784 51.1753L101.452 19.2186C101.468 19.1761 101.491 19.1366 101.512 19.0967C101.678 18.7954 101.485 18.4159 101.145 18.3704C101.1 18.3643 101.054 18.3595 101.01 18.347L68.1546 9.01934C68.1106 9.00685 68.0647 8.99901 68.0193 9.00488C67.5938 9.05992 67.4291 9.61992 67.7902 9.89183L88.1313 25.206C88.2544 25.2987 88.3274 25.4433 88.3288 25.5974Z" fill="#9EDBF4"/>
<path d="M84.1954 51.7757L84.1215 40.8468C84.119 40.4802 83.7331 40.2431 83.405 40.4066L61.4713 51.3356C61.003 51.5689 61.1691 52.2746 61.6923 52.2746H83.6998C83.9748 52.2746 84.1972 52.0507 84.1954 51.7757Z" fill="url(#paint0_linear_179_21776)"/>
<path d="M84.0327 27.4982V34.2978C84.0327 34.4843 83.9279 34.655 83.7617 34.7395L49.368 52.2208C49.2984 52.2561 49.2215 52.2746 49.1435 52.2746H35.7774C35.3733 52.2746 35.1391 51.8169 35.3755 51.4892L43.0802 40.8103C43.1264 40.7463 43.1872 40.6943 43.2576 40.6585L77.9749 23.0154C78.144 22.9295 78.3473 22.9476 78.4986 23.0621L83.8363 27.1032C83.96 27.1968 84.0327 27.343 84.0327 27.4982Z" fill="url(#paint1_linear_179_21776)"/>
<path d="M64.5617 12.6844L73.4035 19.3407C73.6968 19.5615 73.6565 20.0134 73.3288 20.1789L51.2208 31.3428C50.754 31.5786 50.2876 31.0242 50.5999 30.6047L63.8662 12.7844C64.0302 12.564 64.3423 12.5192 64.5617 12.6844Z" fill="url(#paint2_linear_179_21776)"/>
<rect width="13.0931" height="180.622" transform="matrix(0.453523 0.891244 -0.891244 0.453524 77.9753 23.0142)" fill="url(#paint3_linear_179_21776)"/>
<path d="M130.915 20.1H140.915V22.7H130.915V20.1ZM130.115 27H126.965L134.115 9.5H137.715L144.915 27H141.765L135.965 12.35L130.115 27ZM153.073 12.65C151.823 12.65 150.757 12.25 149.873 11.45C149.007 10.6333 148.573 9.64167 148.573 8.475H150.748C150.748 9.10833 150.965 9.63333 151.398 10.05C151.848 10.45 152.415 10.65 153.098 10.65C153.798 10.65 154.39 10.4417 154.873 10.025C155.357 9.59167 155.598 9.075 155.598 8.475H157.773C157.773 9.59167 157.307 10.5667 156.373 11.4C155.44 12.2333 154.34 12.65 153.073 12.65ZM159.023 27H156.273V17.95L150.223 27H147.023V14.5H149.773V23.3L155.823 14.5H159.023V27ZM161.095 24.425H175.395V29.9H172.645V27H163.845V29.9H161.095V24.425ZM161.695 24.425C162.478 24.425 163.078 24.175 163.495 23.675C163.928 23.175 164.145 22.5333 164.145 21.75V14.5H173.645V27H170.895V17.2H166.895V22.1C166.895 23.2167 166.428 24.1917 165.495 25.025C164.578 25.8417 163.395 26.25 161.945 26.25H161.195V24.425H161.695ZM187.268 19.475C187.135 18.575 186.718 17.8667 186.018 17.35C185.335 16.8167 184.502 16.55 183.518 16.55C182.568 16.55 181.76 16.8083 181.093 17.325C180.427 17.8417 180.01 18.5583 179.843 19.475H187.268ZM179.843 21.95C180.01 22.8667 180.435 23.5917 181.118 24.125C181.802 24.6417 182.627 24.9 183.593 24.9C184.327 24.9 184.993 24.7333 185.593 24.4C186.21 24.0667 186.668 23.6083 186.968 23.025L189.493 24C188.96 25.05 188.16 25.8917 187.093 26.525C186.043 27.1417 184.885 27.45 183.618 27.45C181.735 27.45 180.152 26.8167 178.868 25.55C177.585 24.2667 176.943 22.65 176.943 20.7C176.943 18.7833 177.568 17.1917 178.818 15.925C180.068 14.6417 181.61 14 183.443 14C185.293 14 186.86 14.6333 188.143 15.9C189.427 17.1667 190.068 18.75 190.068 20.65C190.068 21.0167 190.01 21.45 189.893 21.95H179.843ZM192.312 27V14.5H195.062V19.45H201.687V14.5H204.437V27H201.687V22H195.062V27H192.312ZM217.305 14.5V17.075H213.305V27H210.555V17.075H206.555V14.5H217.305ZM231.436 27H228.686V17.95L222.636 27H219.436V14.5H222.186V23.3L228.236 14.5H231.436V27ZM234.182 27V14.5H236.932V19.375H237.607L242.057 14.5H245.607L239.982 20.75L245.607 27H242.057L237.607 22.2H236.932V27H234.182ZM254.934 21.6L251.859 22C250.542 22.15 249.884 22.6333 249.884 23.45C249.884 23.9 250.059 24.25 250.409 24.5C250.775 24.7333 251.275 24.85 251.909 24.85C252.825 24.85 253.559 24.6 254.109 24.1C254.659 23.5833 254.934 22.9167 254.934 22.1H255.809C255.809 23.5833 255.359 24.8167 254.459 25.8C253.575 26.7833 252.459 27.275 251.109 27.275C249.942 27.275 248.984 26.9417 248.234 26.275C247.5 25.5917 247.134 24.7167 247.134 23.65C247.134 22.5833 247.5 21.6917 248.234 20.975C248.984 20.2583 249.984 19.825 251.234 19.675L254.934 19.25V18.975C254.934 18.3583 254.675 17.8333 254.159 17.4C253.659 16.9667 253.05 16.75 252.334 16.75C251.684 16.75 251.1 16.925 250.584 17.275C250.067 17.625 249.742 18.0667 249.609 18.6L247.034 17.75C247.367 16.7 248.009 15.85 248.959 15.2C249.925 14.55 251.009 14.225 252.209 14.225C253.692 14.225 254.975 14.6833 256.059 15.6C257.142 16.5 257.684 17.5667 257.684 18.8V27H254.934V21.6ZM267.865 22.95C267.065 21.5333 266.665 19.9583 266.665 18.225C266.665 16.4917 267.065 14.9167 267.865 13.5C268.665 12.0833 269.757 10.9833 271.14 10.2C272.523 9.4 274.048 9 275.715 9C277.582 9 279.273 9.5 280.79 10.5C282.307 11.5 283.457 12.8583 284.24 14.575L281.54 15.575C281.007 14.3917 280.215 13.4583 279.165 12.775C278.132 12.0917 276.982 11.75 275.715 11.75C273.948 11.75 272.457 12.3667 271.24 13.6C270.023 14.8167 269.415 16.3583 269.415 18.225C269.415 20.0917 270.023 21.6417 271.24 22.875C272.457 24.0917 273.948 24.7 275.715 24.7C277.015 24.7 278.19 24.3417 279.24 23.625C280.307 22.8917 281.107 21.9 281.64 20.65L284.365 21.625C283.615 23.4083 282.465 24.825 280.915 25.875C279.365 26.925 277.632 27.45 275.715 27.45C274.048 27.45 272.523 27.0583 271.14 26.275C269.757 25.475 268.665 24.3667 267.865 22.95ZM290.048 17.775C289.265 18.5417 288.873 19.525 288.873 20.725C288.873 21.925 289.265 22.9083 290.048 23.675C290.848 24.4417 291.823 24.825 292.973 24.825C294.123 24.825 295.09 24.4417 295.873 23.675C296.673 22.9083 297.073 21.925 297.073 20.725C297.073 19.525 296.673 18.5417 295.873 17.775C295.09 17.0083 294.123 16.625 292.973 16.625C291.823 16.625 290.848 17.0083 290.048 17.775ZM288.098 25.55C286.781 24.2833 286.123 22.675 286.123 20.725C286.123 18.775 286.781 17.1667 288.098 15.9C289.431 14.6333 291.056 14 292.973 14C294.89 14 296.506 14.6333 297.823 15.9C299.156 17.1667 299.823 18.775 299.823 20.725C299.823 22.675 299.156 24.2833 297.823 25.55C296.506 26.8167 294.89 27.45 292.973 27.45C291.056 27.45 289.431 26.8167 288.098 25.55ZM309.427 16.95H304.827V19.65H309.627C310.06 19.65 310.419 19.5333 310.702 19.3C311.002 19.05 311.152 18.75 311.152 18.4C311.152 17.9833 310.985 17.6417 310.652 17.375C310.335 17.0917 309.927 16.95 309.427 16.95ZM309.677 21.775H304.827V24.55H309.677C310.16 24.55 310.569 24.4167 310.902 24.15C311.235 23.8833 311.402 23.5583 311.402 23.175C311.402 22.775 311.235 22.4417 310.902 22.175C310.585 21.9083 310.177 21.775 309.677 21.775ZM309.927 27H302.077V14.5H309.677C310.894 14.5 311.902 14.825 312.702 15.475C313.502 16.125 313.902 16.9333 313.902 17.9C313.902 18.4667 313.752 18.975 313.452 19.425C313.169 19.875 312.769 20.225 312.252 20.475C312.835 20.775 313.294 21.2 313.627 21.75C313.977 22.2833 314.152 22.8833 314.152 23.55C314.152 24.5333 313.752 25.3583 312.952 26.025C312.152 26.675 311.144 27 309.927 27ZM326.233 19.475C326.1 18.575 325.683 17.8667 324.983 17.35C324.3 16.8167 323.467 16.55 322.483 16.55C321.533 16.55 320.725 16.8083 320.058 17.325C319.392 17.8417 318.975 18.5583 318.808 19.475H326.233ZM318.808 21.95C318.975 22.8667 319.4 23.5917 320.083 24.125C320.767 24.6417 321.592 24.9 322.558 24.9C323.292 24.9 323.958 24.7333 324.558 24.4C325.175 24.0667 325.633 23.6083 325.933 23.025L328.458 24C327.925 25.05 327.125 25.8917 326.058 26.525C325.008 27.1417 323.85 27.45 322.583 27.45C320.7 27.45 319.117 26.8167 317.833 25.55C316.55 24.2667 315.908 22.65 315.908 20.7C315.908 18.7833 316.533 17.1917 317.783 15.925C319.033 14.6417 320.575 14 322.408 14C324.258 14 325.825 14.6333 327.108 15.9C328.392 17.1667 329.033 18.75 329.033 20.65C329.033 21.0167 328.975 21.45 328.858 21.95H318.808ZM341.401 14.5V17.075H337.401V27H334.651V17.075H330.651V14.5H341.401ZM350.832 21.6L347.757 22C346.441 22.15 345.782 22.6333 345.782 23.45C345.782 23.9 345.957 24.25 346.307 24.5C346.674 24.7333 347.174 24.85 347.807 24.85C348.724 24.85 349.457 24.6 350.007 24.1C350.557 23.5833 350.832 22.9167 350.832 22.1H351.707C351.707 23.5833 351.257 24.8167 350.357 25.8C349.474 26.7833 348.357 27.275 347.007 27.275C345.841 27.275 344.882 26.9417 344.132 26.275C343.399 25.5917 343.032 24.7167 343.032 23.65C343.032 22.5833 343.399 21.6917 344.132 20.975C344.882 20.2583 345.882 19.825 347.132 19.675L350.832 19.25V18.975C350.832 18.3583 350.574 17.8333 350.057 17.4C349.557 16.9667 348.949 16.75 348.232 16.75C347.582 16.75 346.999 16.925 346.482 17.275C345.966 17.625 345.641 18.0667 345.507 18.6L342.932 17.75C343.266 16.7 343.907 15.85 344.857 15.2C345.824 14.55 346.907 14.225 348.107 14.225C349.591 14.225 350.874 14.6833 351.957 15.6C353.041 16.5 353.582 17.5667 353.582 18.8V27H350.832V21.6ZM114.138 49.3C114.755 49.3 115.23 49.1083 115.563 48.725C115.913 48.3417 116.088 47.85 116.088 47.25V39.5H125.588V52H122.838V42.2H118.838V47.6C118.838 48.8 118.422 49.8333 117.588 50.7C116.772 51.5667 115.705 52 114.388 52H113.538V49.3H114.138ZM140.347 52H137.597V42.95L131.547 52H128.347V39.5H131.097V48.3L137.147 39.5H140.347V52ZM143.093 52V39.5H145.843V49.425H152.093V39.5H154.843V49.425H156.393V54.9H153.643V52H143.093ZM168.347 44.475C168.214 43.575 167.797 42.8667 167.097 42.35C166.414 41.8167 165.581 41.55 164.597 41.55C163.647 41.55 162.839 41.8083 162.172 42.325C161.506 42.8417 161.089 43.5583 160.922 44.475H168.347ZM160.922 46.95C161.089 47.8667 161.514 48.5917 162.197 49.125C162.881 49.6417 163.706 49.9 164.672 49.9C165.406 49.9 166.072 49.7333 166.672 49.4C167.289 49.0667 167.747 48.6083 168.047 48.025L170.572 49C170.039 50.05 169.239 50.8917 168.172 51.525C167.122 52.1417 165.964 52.45 164.697 52.45C162.814 52.45 161.231 51.8167 159.947 50.55C158.664 49.2667 158.022 47.65 158.022 45.7C158.022 43.7833 158.647 42.1917 159.897 40.925C161.147 39.6417 162.689 39 164.522 39C166.372 39 167.939 39.6333 169.222 40.9C170.506 42.1667 171.147 43.75 171.147 45.65C171.147 46.0167 171.089 46.45 170.972 46.95H160.922ZM185.391 52H182.641V42.95L176.591 52H173.391V39.5H176.141V48.3L182.191 39.5H185.391V52ZM191.537 42.775C190.77 43.5417 190.387 44.525 190.387 45.725C190.387 46.925 190.77 47.9083 191.537 48.675C192.303 49.4417 193.245 49.825 194.362 49.825C195.162 49.825 195.887 49.625 196.537 49.225C197.203 48.825 197.703 48.2833 198.037 47.6L200.562 48.75C199.995 49.8833 199.153 50.7833 198.037 51.45C196.937 52.1167 195.712 52.45 194.362 52.45C192.495 52.45 190.903 51.8167 189.587 50.55C188.287 49.2833 187.637 47.675 187.637 45.725C187.637 43.775 188.287 42.1667 189.587 40.9C190.903 39.6333 192.495 39 194.362 39C195.745 39 196.995 39.3417 198.112 40.025C199.228 40.7083 200.062 41.6417 200.612 42.825L198.087 44C197.77 43.25 197.278 42.6667 196.612 42.25C195.945 41.8333 195.195 41.625 194.362 41.625C193.245 41.625 192.303 42.0083 191.537 42.775ZM212.983 39.5V42.075H208.983V52H206.233V42.075H202.233V39.5H212.983ZM218.539 42.775C217.756 43.5417 217.364 44.525 217.364 45.725C217.364 46.925 217.756 47.9083 218.539 48.675C219.339 49.4417 220.314 49.825 221.464 49.825C222.614 49.825 223.581 49.4417 224.364 48.675C225.164 47.9083 225.564 46.925 225.564 45.725C225.564 44.525 225.164 43.5417 224.364 42.775C223.581 42.0083 222.614 41.625 221.464 41.625C220.314 41.625 219.339 42.0083 218.539 42.775ZM216.589 50.55C215.273 49.2833 214.614 47.675 214.614 45.725C214.614 43.775 215.273 42.1667 216.589 40.9C217.923 39.6333 219.548 39 221.464 39C223.381 39 224.998 39.6333 226.314 40.9C227.648 42.1667 228.314 43.775 228.314 45.725C228.314 47.675 227.648 49.2833 226.314 50.55C224.998 51.8167 223.381 52.45 221.464 52.45C219.548 52.45 217.923 51.8167 216.589 50.55ZM237.918 41.95H233.318V44.65H238.118C238.552 44.65 238.91 44.5333 239.193 44.3C239.493 44.05 239.643 43.75 239.643 43.4C239.643 42.9833 239.477 42.6417 239.143 42.375C238.827 42.0917 238.418 41.95 237.918 41.95ZM238.168 46.775H233.318V49.55H238.168C238.652 49.55 239.06 49.4167 239.393 49.15C239.727 48.8833 239.893 48.5583 239.893 48.175C239.893 47.775 239.727 47.4417 239.393 47.175C239.077 46.9083 238.668 46.775 238.168 46.775ZM238.418 52H230.568V39.5H238.168C239.385 39.5 240.393 39.825 241.193 40.475C241.993 41.125 242.393 41.9333 242.393 42.9C242.393 43.4667 242.243 43.975 241.943 44.425C241.66 44.875 241.26 45.225 240.743 45.475C241.327 45.775 241.785 46.2 242.118 46.75C242.468 47.2833 242.643 47.8833 242.643 48.55C242.643 49.5333 242.243 50.3583 241.443 51.025C240.643 51.675 239.635 52 238.418 52ZM259.238 41.375C260.571 41.575 261.638 42.15 262.438 43.1C263.254 44.05 263.663 45.2417 263.663 46.675C263.663 48.325 263.079 49.675 261.913 50.725C260.746 51.7583 259.246 52.275 257.413 52.275C255.863 52.275 254.529 51.85 253.413 51C252.296 50.15 251.538 49.0083 251.138 47.575L253.713 46.7C253.913 47.5833 254.338 48.275 254.988 48.775C255.638 49.275 256.438 49.525 257.388 49.525C258.421 49.525 259.263 49.2583 259.913 48.725C260.579 48.1917 260.913 47.5 260.913 46.65C260.913 45.5667 260.513 44.7167 259.713 44.1C258.913 43.4667 257.796 43.15 256.363 43.15L255.738 41.225L260.488 37.175H251.363V34.5H263.663V37.675L259.238 41.375ZM268.17 43.925C268.17 45.6083 268.603 46.9917 269.47 48.075C270.337 49.1583 271.395 49.7 272.645 49.7C273.895 49.7 274.953 49.1583 275.82 48.075C276.687 46.9917 277.12 45.6083 277.12 43.925V42.6C277.12 40.9167 276.687 39.5333 275.82 38.45C274.953 37.3667 273.895 36.825 272.645 36.825C271.395 36.825 270.337 37.3667 269.47 38.45C268.603 39.5333 268.17 40.9167 268.17 42.6V43.925ZM265.42 43.925V42.6C265.42 40.1333 266.12 38.1 267.52 36.5C268.92 34.8833 270.628 34.075 272.645 34.075C274.662 34.075 276.37 34.8833 277.77 36.5C279.17 38.1 279.87 40.1333 279.87 42.6V43.925C279.87 46.3917 279.17 48.4333 277.77 50.05C276.37 51.65 274.662 52.45 272.645 52.45C270.628 52.45 268.92 51.65 267.52 50.05C266.12 48.4333 265.42 46.3917 265.42 43.925ZM282.131 52V39.5H284.881V44.375H285.556L290.006 39.5H293.556L287.931 45.75L293.556 52H290.006L285.556 47.2H284.881V52H282.131ZM307.583 52H304.833V42.95L298.783 52H295.583V39.5H298.333V48.3L304.383 39.5H307.583V52Z" fill="#003368"/>
<defs>
<linearGradient id="paint0_linear_179_21776" x1="83.9509" y1="27.3345" x2="35.307" y2="52.0302" gradientUnits="userSpaceOnUse">
<stop stop-color="#9EDBF4"/>
<stop offset="1" stop-color="#15A6DA"/>
</linearGradient>
<linearGradient id="paint1_linear_179_21776" x1="83.95" y1="27.3344" x2="35.3061" y2="52.0302" gradientUnits="userSpaceOnUse">
<stop stop-color="#9EDBF4"/>
<stop offset="1" stop-color="#15A6DA"/>
</linearGradient>
<linearGradient id="paint2_linear_179_21776" x1="83.9507" y1="27.3348" x2="35.3067" y2="52.0306" gradientUnits="userSpaceOnUse">
<stop stop-color="#9EDBF4"/>
<stop offset="1" stop-color="#15A6DA"/>
</linearGradient>
<linearGradient id="paint3_linear_179_21776" x1="6.54656" y1="0" x2="6.50508" y2="29.4881" gradientUnits="userSpaceOnUse">
<stop stop-color="#96D8F3"/>
<stop offset="1" stop-color="#16A6DA"/>
</linearGradient>
</defs>
</svg>
