<svg xmlns="http://www.w3.org/2000/svg" width="175" height="63" viewBox="0 0 175 63" fill="none">
<path d="M151.811 19.9124L151.979 38.4342C151.983 38.7823 152.427 38.9258 152.633 38.6451L174.858 8.36573C175.033 8.12665 174.863 7.78958 174.566 7.78956L137.024 7.7876C136.677 7.78758 136.529 8.22972 136.807 8.43876L151.667 19.6265C151.757 19.6942 151.81 19.7999 151.811 19.9124Z" fill="#003368"/>
<path d="M151.811 19.9124L151.979 38.4342C151.983 38.7724 152.402 38.9174 152.615 38.668C152.628 38.6533 152.638 38.6364 152.647 38.6192L165.726 13.0316C165.734 13.0144 165.745 12.998 165.755 12.9816C165.898 12.7528 165.745 12.4513 165.476 12.4307C165.457 12.4292 165.437 12.428 165.418 12.4248L137.053 7.79233C137.034 7.78918 137.014 7.78724 136.995 7.78867C136.669 7.81273 136.537 8.23571 136.807 8.43876L151.667 19.6265C151.757 19.6942 151.81 19.7999 151.811 19.9124Z" fill="#15A6DA"/>
<path d="M151.811 19.9124L151.979 38.4342C151.982 38.7652 152.385 38.9111 152.601 38.6836C152.624 38.6595 152.639 38.6294 152.651 38.5983L161.398 15.2524C161.409 15.2213 161.426 15.1925 161.442 15.1634C161.563 14.9432 161.423 14.666 161.174 14.6327C161.141 14.6283 161.107 14.6248 161.075 14.6157L137.073 7.80137C137.041 7.79224 137.007 7.78652 136.974 7.79081C136.663 7.83102 136.543 8.24012 136.807 8.43876L151.667 19.6265C151.757 19.6942 151.81 19.7999 151.811 19.9124Z" fill="#9EDBF4"/>
<path d="M148.791 39.036L148.737 31.0519C148.736 30.7841 148.454 30.6109 148.214 30.7303L132.19 38.7145C131.848 38.885 131.97 39.4004 132.352 39.4004H148.429C148.63 39.4004 148.793 39.2369 148.791 39.036Z" fill="url(#paint0_linear_176_20736)"/>
<path d="M148.673 21.3002V26.2677C148.673 26.4039 148.596 26.5286 148.475 26.5904L123.349 39.3613C123.298 39.3871 123.242 39.4006 123.185 39.4006H113.42C113.125 39.4006 112.954 39.0662 113.126 38.8268L118.755 31.0254C118.789 30.9786 118.833 30.9406 118.885 30.9145L144.247 18.0254C144.371 17.9626 144.519 17.9758 144.63 18.0595L148.529 21.0117C148.62 21.0801 148.673 21.1869 148.673 21.3002Z" fill="url(#paint1_linear_176_20736)"/>
<path d="M134.448 10.4779L140.908 15.3406C141.122 15.5019 141.092 15.832 140.853 15.9529L124.702 24.1087C124.361 24.281 124.02 23.8759 124.248 23.5695L133.94 10.5509C134.06 10.3899 134.288 10.3571 134.448 10.4779Z" fill="url(#paint2_linear_176_20736)"/>
<rect x="144.247" y="18.0256" width="9.56516" height="131.953" transform="rotate(63.03 144.247 18.0256)" fill="url(#paint3_linear_176_20736)"/>
<path d="M0.447998 17.226H11.8892V20.6868H10.1509V18.8537H2.18631V20.6868H0.447998V17.226ZM0.985294 17.226C1.73329 17.226 2.30746 16.989 2.7078 16.5149C3.11868 16.0303 3.32411 15.4139 3.32411 14.6659V7.79171H10.5934V18.8379H8.8551V9.49842H5.06242V14.8872C5.06242 15.8459 4.69369 16.6782 3.95623 17.384C3.2293 18.0899 2.29166 18.4428 1.14332 18.4428H0.669238L0.447998 17.226H0.985294Z" fill="#6FCDEF"/>
<path d="M20.7906 18.8537H19.0522V13.1331L15.228 18.8537H13.2052V10.9523H14.9435V16.5149L18.7678 10.9523H20.7906V18.8537Z" fill="#6FCDEF"/>
<path d="M22.5106 12.5168C22.7845 11.9373 23.1954 11.4843 23.7432 11.1577C24.3016 10.8311 24.9232 10.6678 25.6079 10.6678C26.4613 10.6678 27.1724 10.9049 27.7413 11.379C28.3208 11.853 28.6105 12.4377 28.6105 13.1331C28.6105 13.5018 28.5209 13.8442 28.3418 14.1603C28.1627 14.4658 27.9152 14.7081 27.5991 14.8872C27.9573 15.0768 28.2418 15.3507 28.4525 15.7089C28.6632 16.0566 28.7685 16.4306 28.7685 16.8309C28.7685 17.4947 28.4683 18.0478 27.8678 18.4902C27.2778 18.9222 26.5298 19.1381 25.6238 19.1381C24.8652 19.1381 24.1804 18.9696 23.5694 18.6325C22.9689 18.2848 22.5159 17.8107 22.2103 17.2102L23.8538 16.4517C24.0013 16.7677 24.2278 17.0153 24.5334 17.1944C24.8494 17.3735 25.2023 17.463 25.5921 17.463C26.003 17.463 26.3454 17.3735 26.6193 17.1944C26.8933 17.0048 27.0302 16.773 27.0302 16.4991C27.0302 16.2357 26.9143 16.0145 26.6825 15.8354C26.4613 15.6563 26.1874 15.5667 25.8608 15.5667H24.6124V14.2393H25.8608C26.1453 14.2393 26.3823 14.1603 26.5719 14.0022C26.7721 13.8442 26.8722 13.6493 26.8722 13.4175C26.8722 13.1225 26.7458 12.875 26.4929 12.6748C26.2506 12.4746 25.9451 12.3745 25.5763 12.3745C25.2603 12.3745 24.9758 12.4535 24.723 12.6116C24.4807 12.7591 24.2963 12.9698 24.1699 13.2437L22.5106 12.5168Z" fill="#6FCDEF"/>
<path d="M34.8108 15.4403L32.867 15.6931C32.0347 15.7879 31.6186 16.0935 31.6186 16.6097C31.6186 16.8941 31.7292 17.1154 31.9504 17.2734C32.1822 17.4209 32.4983 17.4947 32.8986 17.4947C33.4781 17.4947 33.9416 17.3366 34.2893 17.0206C34.6369 16.694 34.8108 16.2726 34.8108 15.7563H35.3639C35.3639 16.694 35.0794 17.4736 34.5105 18.0952C33.9521 18.7167 33.2463 19.0275 32.3929 19.0275C31.6555 19.0275 31.0497 18.8168 30.5756 18.3954C30.112 17.9635 29.8803 17.4104 29.8803 16.7361C29.8803 16.0619 30.112 15.4982 30.5756 15.0452C31.0497 14.5922 31.6818 14.3183 32.4719 14.2235L34.8108 13.9548V13.781C34.8108 13.3912 34.6475 13.0593 34.3209 12.7854C34.0048 12.5115 33.6203 12.3745 33.1673 12.3745C32.7564 12.3745 32.3877 12.4852 32.0611 12.7064C31.7345 12.9276 31.529 13.2068 31.4447 13.5439L29.8171 13.0066C30.0278 12.3429 30.4334 11.8056 31.0339 11.3948C31.6449 10.9839 32.3297 10.7784 33.0882 10.7784C34.0259 10.7784 34.8371 11.0682 35.5219 11.6476C36.2067 12.2165 36.5491 12.8908 36.5491 13.6704V18.8537H34.8108V15.4403Z" fill="#6FCDEF"/>
<path d="M42.1072 9.78287C41.3171 9.78287 40.6428 9.53003 40.0845 9.02434C39.5366 8.50811 39.2627 7.88126 39.2627 7.1438H40.6376C40.6376 7.54414 40.7745 7.876 41.0484 8.13938C41.3329 8.39222 41.6911 8.51864 42.123 8.51864C42.5655 8.51864 42.9395 8.38695 43.245 8.12357C43.5505 7.84966 43.7033 7.52307 43.7033 7.1438H45.0781C45.0781 7.84966 44.7832 8.46597 44.1932 8.99273C43.6032 9.51949 42.9079 9.78287 42.1072 9.78287ZM45.8683 18.8537H44.13V13.1331L40.3057 18.8537H38.2829V10.9523H40.0212V16.5149L43.8455 10.9523H45.8683V18.8537Z" fill="#6FCDEF"/>
<path d="M47.6041 18.8537V10.9523H49.3424V14.0812H53.5302V10.9523H55.2685V18.8537H53.5302V15.6931H49.3424V18.8537H47.6041Z" fill="#6FCDEF"/>
<path d="M63.411 13.0225C62.9264 13.5071 62.6841 14.1286 62.6841 14.8872C62.6841 15.6457 62.9264 16.2673 63.411 16.7519C63.8957 17.2365 64.4909 17.4788 65.1968 17.4788C65.7024 17.4788 66.1607 17.3524 66.5716 17.0996C66.993 16.8467 67.3091 16.5043 67.5198 16.0724L69.1159 16.7993C68.7577 17.5157 68.2256 18.0846 67.5198 18.506C66.8244 18.9274 66.0501 19.1381 65.1968 19.1381C64.0168 19.1381 63.0107 18.7378 62.1784 17.9371C61.3567 17.1365 60.9458 16.1198 60.9458 14.8872C60.9458 13.6546 61.3567 12.6379 62.1784 11.8372C63.0107 11.0366 64.0168 10.6362 65.1968 10.6362C66.0712 10.6362 66.8613 10.8522 67.5672 11.2841C68.273 11.7161 68.7998 12.3061 69.1475 13.0541L67.5514 13.7968C67.3512 13.3227 67.0404 12.954 66.619 12.6906C66.1976 12.4272 65.7235 12.2955 65.1968 12.2955C64.4909 12.2955 63.8957 12.5378 63.411 13.0225Z" fill="#6FCDEF"/>
<path d="M72.7326 13.0225C72.2375 13.5071 71.9899 14.1286 71.9899 14.8872C71.9899 15.6457 72.2375 16.2673 72.7326 16.7519C73.2383 17.2365 73.8546 17.4788 74.5815 17.4788C75.3085 17.4788 75.9195 17.2365 76.4147 16.7519C76.9203 16.2673 77.1732 15.6457 77.1732 14.8872C77.1732 14.1286 76.9203 13.5071 76.4147 13.0225C75.9195 12.5378 75.3085 12.2955 74.5815 12.2955C73.8546 12.2955 73.2383 12.5378 72.7326 13.0225ZM71.5 17.9371C70.6677 17.1365 70.2515 16.1198 70.2515 14.8872C70.2515 13.6546 70.6677 12.6379 71.5 11.8372C72.3428 11.0366 73.37 10.6362 74.5815 10.6362C75.7931 10.6362 76.815 11.0366 77.6473 11.8372C78.4901 12.6379 78.9115 13.6546 78.9115 14.8872C78.9115 16.1198 78.4901 17.1365 77.6473 17.9371C76.815 18.7378 75.7931 19.1381 74.5815 19.1381C73.37 19.1381 72.3428 18.7378 71.5 17.9371Z" fill="#6FCDEF"/>
<path d="M84.9824 12.501H82.0747V14.2077H85.1088C85.3827 14.2077 85.6092 14.1339 85.7883 13.9864C85.978 13.8284 86.0728 13.6388 86.0728 13.4175C86.0728 13.1541 85.9674 12.9382 85.7567 12.7696C85.5566 12.5905 85.2985 12.501 84.9824 12.501ZM85.1404 15.5509H82.0747V17.305H85.1404C85.4459 17.305 85.7041 17.2207 85.9148 17.0522C86.1255 16.8836 86.2308 16.6782 86.2308 16.4359C86.2308 16.183 86.1255 15.9723 85.9148 15.8037C85.7146 15.6352 85.4565 15.5509 85.1404 15.5509ZM85.2985 18.8537H80.3364V10.9523H85.1404C85.9095 10.9523 86.5469 11.1577 87.0526 11.5686C87.5582 11.9795 87.8111 12.4904 87.8111 13.1015C87.8111 13.4597 87.7163 13.781 87.5266 14.0654C87.3475 14.3499 87.0947 14.5711 86.7681 14.7292C87.1368 14.9188 87.4266 15.1874 87.6373 15.5351C87.8585 15.8722 87.9691 16.2515 87.9691 16.6729C87.9691 17.2945 87.7163 17.816 87.2106 18.2374C86.7049 18.6483 86.0675 18.8537 85.2985 18.8537Z" fill="#6FCDEF"/>
<path d="M95.6057 14.097C95.5214 13.5281 95.2581 13.0804 94.8156 12.7538C94.3836 12.4167 93.8569 12.2481 93.2353 12.2481C92.6348 12.2481 92.1238 12.4114 91.7024 12.738C91.281 13.0646 91.0176 13.5176 90.9123 14.097H95.6057ZM90.9123 15.6615C91.0176 16.241 91.2863 16.6992 91.7182 17.0364C92.1502 17.363 92.6717 17.5263 93.2827 17.5263C93.7463 17.5263 94.1677 17.4209 94.5469 17.2102C94.9367 16.9995 95.2264 16.7098 95.4161 16.341L97.0122 16.9574C96.675 17.6211 96.1694 18.1531 95.4951 18.5534C94.8314 18.9432 94.0992 19.1381 93.2985 19.1381C92.108 19.1381 91.1072 18.7378 90.296 17.9371C89.4848 17.1259 89.0791 16.104 89.0791 14.8714C89.0791 13.6598 89.4742 12.6537 90.2644 11.853C91.0545 11.0418 92.029 10.6362 93.1879 10.6362C94.3573 10.6362 95.3476 11.0366 96.1588 11.8372C96.97 12.6379 97.3756 13.6388 97.3756 14.8398C97.3756 15.0716 97.3388 15.3455 97.265 15.6615H90.9123Z" fill="#6FCDEF"/>
<path d="M105.194 10.9523V12.58H102.665V18.8537H100.927V12.58H98.3985V10.9523H105.194Z" fill="#6FCDEF"/>
<path d="M111.155 15.4403L109.211 15.6931C108.379 15.7879 107.963 16.0935 107.963 16.6097C107.963 16.8941 108.074 17.1154 108.295 17.2734C108.527 17.4209 108.843 17.4947 109.243 17.4947C109.822 17.4947 110.286 17.3366 110.634 17.0206C110.981 16.694 111.155 16.2726 111.155 15.7563H111.708C111.708 16.694 111.424 17.4736 110.855 18.0952C110.296 18.7167 109.591 19.0275 108.737 19.0275C108 19.0275 107.394 18.8168 106.92 18.3954C106.456 17.9635 106.225 17.4104 106.225 16.7361C106.225 16.0619 106.456 15.4982 106.92 15.0452C107.394 14.5922 108.026 14.3183 108.816 14.2235L111.155 13.9548V13.781C111.155 13.3912 110.992 13.0593 110.665 12.7854C110.349 12.5115 109.965 12.3745 109.512 12.3745C109.101 12.3745 108.732 12.4852 108.405 12.7064C108.079 12.9276 107.873 13.2068 107.789 13.5439L106.161 13.0066C106.372 12.3429 106.778 11.8056 107.378 11.3948C107.989 10.9839 108.674 10.7784 109.433 10.7784C110.37 10.7784 111.181 11.0682 111.866 11.6476C112.551 12.2165 112.893 12.8908 112.893 13.6704V18.8537H111.155V15.4403Z" fill="#6FCDEF"/>
<path d="M0.890477 32.9498C1.28028 32.9498 1.58053 32.8287 1.79124 32.5864C2.01248 32.344 2.1231 32.0332 2.1231 31.654V26.7551H8.12817V34.6565H6.38986V28.4618H3.86141V31.8752C3.86141 32.6338 3.59803 33.2869 3.07127 33.8348C2.55504 34.3826 1.88079 34.6565 1.04851 34.6565H0.511209V32.9498H0.890477Z" fill="#6FCDEF"/>
<path d="M17.4571 34.6565H15.7188V28.9359L11.8946 34.6565H9.87179V26.7551H11.6101V32.3177L15.4344 26.7551H17.4571V34.6565Z" fill="#6FCDEF"/>
<path d="M19.193 34.6565V26.7551H20.9313V33.0288H24.882V26.7551H26.6203V33.0288H27.6001V36.4897H25.8618V34.6565H19.193Z" fill="#6FCDEF"/>
<path d="M35.1568 29.8999C35.0725 29.331 34.8092 28.8832 34.3667 28.5566C33.9347 28.2195 33.408 28.0509 32.7864 28.0509C32.1859 28.0509 31.6749 28.2142 31.2535 28.5408C30.8321 28.8674 30.5687 29.3204 30.4634 29.8999H35.1568ZM30.4634 31.4643C30.5687 32.0438 30.8374 32.5021 31.2693 32.8392C31.7013 33.1658 32.2228 33.3291 32.8338 33.3291C33.2973 33.3291 33.7188 33.2237 34.098 33.013C34.4878 32.8023 34.7775 32.5126 34.9672 32.1439L36.5633 32.7602C36.2261 33.4239 35.7205 33.9559 35.0462 34.3563C34.3825 34.7461 33.6503 34.941 32.8496 34.941C31.6591 34.941 30.6583 34.5406 29.8471 33.74C29.0358 32.9287 28.6302 31.9068 28.6302 30.6742C28.6302 29.4627 29.0253 28.4565 29.8155 27.6559C30.6056 26.8447 31.5801 26.439 32.739 26.439C33.9084 26.439 34.8987 26.8394 35.7099 27.6401C36.5211 28.4407 36.9267 29.4416 36.9267 30.6426C36.9267 30.8744 36.8899 31.1483 36.8161 31.4643H30.4634Z" fill="#6FCDEF"/>
<path d="M45.93 34.6565H44.1917V28.9359L40.3674 34.6565H38.3447V26.7551H40.083V32.3177L43.9073 26.7551H45.93V34.6565Z" fill="#6FCDEF"/>
<path d="M49.815 28.8253C49.3304 29.3099 49.0881 29.9315 49.0881 30.69C49.0881 31.4485 49.3304 32.0701 49.815 32.5547C50.2997 33.0394 50.8949 33.2817 51.6008 33.2817C52.1065 33.2817 52.5647 33.1553 52.9756 32.9024C53.397 32.6496 53.7131 32.3072 53.9238 31.8752L55.5199 32.6022C55.1617 33.3185 54.6296 33.8875 53.9238 34.3089C53.2285 34.7303 52.4541 34.941 51.6008 34.941C50.4208 34.941 49.4147 34.5406 48.5824 33.74C47.7607 32.9393 47.3498 31.9226 47.3498 30.69C47.3498 29.4574 47.7607 28.4407 48.5824 27.6401C49.4147 26.8394 50.4208 26.439 51.6008 26.439C52.4752 26.439 53.2653 26.655 53.9712 27.087C54.677 27.5189 55.2038 28.1089 55.5515 28.8569L53.9554 29.5996C53.7552 29.1255 53.4444 28.7568 53.023 28.4934C52.6016 28.23 52.1275 28.0983 51.6008 28.0983C50.8949 28.0983 50.2997 28.3407 49.815 28.8253Z" fill="#6FCDEF"/>
<path d="M63.3718 26.7551V28.3828H60.8433V34.6565H59.105V28.3828H56.5766V26.7551H63.3718Z" fill="#6FCDEF"/>
<path d="M66.8837 28.8253C66.3886 29.3099 66.141 29.9315 66.141 30.69C66.141 31.4485 66.3886 32.0701 66.8837 32.5547C67.3894 33.0394 68.0057 33.2817 68.7326 33.2817C69.4596 33.2817 70.0706 33.0394 70.5658 32.5547C71.0715 32.0701 71.3243 31.4485 71.3243 30.69C71.3243 29.9315 71.0715 29.3099 70.5658 28.8253C70.0706 28.3407 69.4596 28.0983 68.7326 28.0983C68.0057 28.0983 67.3894 28.3407 66.8837 28.8253ZM65.6511 33.74C64.8188 32.9393 64.4027 31.9226 64.4027 30.69C64.4027 29.4574 64.8188 28.4407 65.6511 27.6401C66.4939 26.8394 67.5211 26.439 68.7326 26.439C69.9442 26.439 70.9661 26.8394 71.7984 27.6401C72.6412 28.4407 73.0626 29.4574 73.0626 30.69C73.0626 31.9226 72.6412 32.9393 71.7984 33.74C70.9661 34.5406 69.9442 34.941 68.7326 34.941C67.5211 34.941 66.4939 34.5406 65.6511 33.74Z" fill="#6FCDEF"/>
<path d="M79.1335 28.3038H76.2258V30.0105H79.2599C79.5338 30.0105 79.7603 29.9367 79.9394 29.7893C80.1291 29.6312 80.2239 29.4416 80.2239 29.2203C80.2239 28.957 80.1185 28.741 79.9078 28.5724C79.7077 28.3933 79.4495 28.3038 79.1335 28.3038ZM79.2915 31.3537H76.2258V33.1078H79.2915C79.597 33.1078 79.8552 33.0236 80.0659 32.855C80.2766 32.6864 80.3819 32.481 80.3819 32.2387C80.3819 31.9858 80.2766 31.7751 80.0659 31.6066C79.8657 31.438 79.6076 31.3537 79.2915 31.3537ZM79.4495 34.6565H74.4875V26.7551H79.2915C80.0606 26.7551 80.698 26.9605 81.2037 27.3714C81.7094 27.7823 81.9622 28.2933 81.9622 28.9043C81.9622 29.2625 81.8674 29.5838 81.6777 29.8683C81.4986 30.1527 81.2458 30.374 80.9192 30.532C81.2879 30.7216 81.5777 30.9903 81.7884 31.3379C82.0096 31.6751 82.1202 32.0543 82.1202 32.4757C82.1202 33.0973 81.8674 33.6188 81.3617 34.0402C80.856 34.4511 80.2186 34.6565 79.4495 34.6565Z" fill="#6FCDEF"/>
<path d="M5.67873 43.7431C6.52155 43.8696 7.19581 44.233 7.7015 44.8335C8.21772 45.434 8.47584 46.1873 8.47584 47.0933C8.47584 48.1363 8.1071 48.9897 7.36964 49.6534C6.63217 50.3066 5.684 50.6332 4.52513 50.6332C3.54535 50.6332 2.70254 50.3645 1.99668 49.8272C1.29082 49.2899 0.811463 48.5683 0.558618 47.6622L2.18631 47.1091C2.31273 47.6675 2.58138 48.1047 2.99225 48.4208C3.40313 48.7368 3.90882 48.8949 4.50933 48.8949C5.16251 48.8949 5.69454 48.7263 6.10541 48.3892C6.52682 48.0521 6.73752 47.6148 6.73752 47.0775C6.73752 46.3928 6.48468 45.8555 5.97899 45.4657C5.4733 45.0653 4.76744 44.8652 3.86141 44.8652L3.46634 43.6483L6.46888 41.0883H0.700843V39.3974H8.47584V41.4043L5.67873 43.7431Z" fill="#6FCDEF"/>
<path d="M11.3249 45.355C11.3249 46.4191 11.5988 47.2935 12.1467 47.9783C12.6945 48.6631 13.3635 49.0055 14.1536 49.0055C14.9438 49.0055 15.6127 48.6631 16.1606 47.9783C16.7084 47.2935 16.9823 46.4191 16.9823 45.355V44.5175C16.9823 43.4534 16.7084 42.579 16.1606 41.8942C15.6127 41.2094 14.9438 40.867 14.1536 40.867C13.3635 40.867 12.6945 41.2094 12.1467 41.8942C11.5988 42.579 11.3249 43.4534 11.3249 44.5175V45.355ZM9.5866 45.355V44.5175C9.5866 42.9583 10.0291 41.673 10.914 40.6616C11.799 39.6397 12.8789 39.1287 14.1536 39.1287C15.4284 39.1287 16.5082 39.6397 17.3932 40.6616C18.2782 41.673 18.7206 42.9583 18.7206 44.5175V45.355C18.7206 46.9142 18.2782 48.2048 17.3932 49.2267C16.5082 50.2381 15.4284 50.7438 14.1536 50.7438C12.8789 50.7438 11.799 50.2381 10.914 49.2267C10.0291 48.2048 9.5866 46.9142 9.5866 45.355Z" fill="#6FCDEF"/>
<path d="M20.1498 50.4593V42.5579H21.8881V45.6395H22.3148L25.1277 42.5579H27.3717L23.8161 46.5086L27.3717 50.4593H25.1277L22.3148 47.4252H21.8881V50.4593H20.1498Z" fill="#6FCDEF"/>
<path d="M36.2384 50.4593H34.5001V44.7387L30.6758 50.4593H28.6531V42.5579H30.3914V48.1205L34.2157 42.5579H36.2384V50.4593Z" fill="#6FCDEF"/>
<defs>
<linearGradient id="paint0_linear_176_20736" x1="148.613" y1="21.1805" x2="113.076" y2="39.222" gradientUnits="userSpaceOnUse">
<stop stop-color="#9EDBF4"/>
<stop offset="1" stop-color="#15A6DA"/>
</linearGradient>
<linearGradient id="paint1_linear_176_20736" x1="148.612" y1="21.1806" x2="113.076" y2="39.222" gradientUnits="userSpaceOnUse">
<stop stop-color="#9EDBF4"/>
<stop offset="1" stop-color="#15A6DA"/>
</linearGradient>
<linearGradient id="paint2_linear_176_20736" x1="148.613" y1="21.1807" x2="113.076" y2="39.2222" gradientUnits="userSpaceOnUse">
<stop stop-color="#9EDBF4"/>
<stop offset="1" stop-color="#15A6DA"/>
</linearGradient>
<linearGradient id="paint3_linear_176_20736" x1="149.03" y1="18.0256" x2="149" y2="39.5681" gradientUnits="userSpaceOnUse">
<stop stop-color="#96D8F3"/>
<stop offset="1" stop-color="#16A6DA"/>
</linearGradient>
</defs>
</svg>
