<svg xmlns="http://www.w3.org/2000/svg" width="175" height="62" viewBox="0 0 175 62" fill="none">
<path d="M151.811 18.9124L151.979 37.4342C151.983 37.7823 152.427 37.9258 152.633 37.6451L174.858 7.36573C175.033 7.12665 174.863 6.78958 174.566 6.78956L137.024 6.7876C136.677 6.78758 136.529 7.22972 136.807 7.43876L151.667 18.6265C151.757 18.6942 151.81 18.7999 151.811 18.9124Z" fill="#003368"/>
<path d="M151.811 18.9124L151.979 37.4342C151.983 37.7724 152.402 37.9174 152.615 37.668C152.628 37.6533 152.638 37.6364 152.647 37.6192L165.726 12.0316C165.734 12.0144 165.745 11.998 165.755 11.9816C165.898 11.7528 165.745 11.4513 165.476 11.4307C165.457 11.4292 165.437 11.428 165.418 11.4248L137.053 6.79233C137.034 6.78918 137.014 6.78724 136.995 6.78867C136.669 6.81273 136.537 7.23571 136.807 7.43876L151.667 18.6265C151.757 18.6942 151.81 18.7999 151.811 18.9124Z" fill="#15A6DA"/>
<path d="M151.811 18.9124L151.979 37.4342C151.982 37.7652 152.385 37.9111 152.601 37.6836C152.624 37.6595 152.639 37.6294 152.651 37.5983L161.398 14.2524C161.409 14.2213 161.426 14.1925 161.442 14.1634C161.563 13.9432 161.423 13.666 161.174 13.6327C161.141 13.6283 161.107 13.6248 161.075 13.6157L137.073 6.80137C137.041 6.79224 137.007 6.78652 136.974 6.79081C136.663 6.83102 136.543 7.24012 136.807 7.43876L151.667 18.6265C151.757 18.6942 151.81 18.7999 151.811 18.9124Z" fill="#9EDBF4"/>
<path d="M148.791 38.036L148.737 30.0519C148.736 29.7841 148.454 29.6109 148.214 29.7303L132.19 37.7145C131.848 37.885 131.97 38.4004 132.352 38.4004H148.429C148.63 38.4004 148.793 38.2369 148.791 38.036Z" fill="url(#paint0_linear_178_21737)"/>
<path d="M148.673 20.3002V25.2677C148.673 25.4039 148.596 25.5286 148.475 25.5904L123.349 38.3613C123.298 38.3871 123.242 38.4006 123.185 38.4006H113.42C113.125 38.4006 112.954 38.0662 113.126 37.8268L118.755 30.0254C118.789 29.9786 118.833 29.9406 118.885 29.9145L144.247 17.0254C144.371 16.9626 144.519 16.9758 144.63 17.0595L148.529 20.0117C148.62 20.0801 148.673 20.1869 148.673 20.3002Z" fill="url(#paint1_linear_178_21737)"/>
<path d="M134.448 9.47785L140.908 14.3406C141.122 14.5019 141.092 14.832 140.853 14.9529L124.702 23.1087C124.361 23.281 124.02 22.8759 124.248 22.5695L133.94 9.55089C134.06 9.3899 134.288 9.35714 134.448 9.47785Z" fill="url(#paint2_linear_178_21737)"/>
<rect x="144.247" y="17.0256" width="9.56516" height="131.953" transform="rotate(63.03 144.247 17.0256)" fill="url(#paint3_linear_178_21737)"/>
<path d="M0.447998 16.226H11.8892V19.6868H10.1509V17.8537H2.18631V19.6868H0.447998V16.226ZM0.985294 16.226C1.73329 16.226 2.30746 15.989 2.7078 15.5149C3.11868 15.0303 3.32411 14.4139 3.32411 13.6659V6.79171H10.5934V17.8379H8.8551V8.49842H5.06242V13.8872C5.06242 14.8459 4.69369 15.6782 3.95623 16.384C3.2293 17.0899 2.29166 17.4428 1.14332 17.4428H0.669238L0.447998 16.226H0.985294Z" fill="#003368"/>
<path d="M20.7906 17.8537H19.0522V12.1331L15.228 17.8537H13.2052V9.95228H14.9435V15.5149L18.7678 9.95228H20.7906V17.8537Z" fill="#003368"/>
<path d="M22.5106 11.5168C22.7845 10.9373 23.1954 10.4843 23.7432 10.1577C24.3016 9.83113 24.9232 9.66783 25.6079 9.66783C26.4613 9.66783 27.1724 9.90487 27.7413 10.379C28.3208 10.853 28.6105 11.4377 28.6105 12.1331C28.6105 12.5018 28.5209 12.8442 28.3418 13.1603C28.1627 13.4658 27.9152 13.7081 27.5991 13.8872C27.9573 14.0768 28.2418 14.3507 28.4525 14.7089C28.6632 15.0566 28.7685 15.4306 28.7685 15.8309C28.7685 16.4947 28.4683 17.0478 27.8678 17.4902C27.2778 17.9222 26.5298 18.1381 25.6238 18.1381C24.8652 18.1381 24.1804 17.9696 23.5694 17.6325C22.9689 17.2848 22.5159 16.8107 22.2103 16.2102L23.8538 15.4517C24.0013 15.7677 24.2278 16.0153 24.5334 16.1944C24.8494 16.3735 25.2023 16.463 25.5921 16.463C26.003 16.463 26.3454 16.3735 26.6193 16.1944C26.8933 16.0048 27.0302 15.773 27.0302 15.4991C27.0302 15.2357 26.9143 15.0145 26.6825 14.8354C26.4613 14.6563 26.1874 14.5667 25.8608 14.5667H24.6124V13.2393H25.8608C26.1453 13.2393 26.3823 13.1603 26.5719 13.0022C26.7721 12.8442 26.8722 12.6493 26.8722 12.4175C26.8722 12.1225 26.7458 11.875 26.4929 11.6748C26.2506 11.4746 25.9451 11.3745 25.5763 11.3745C25.2603 11.3745 24.9758 11.4535 24.723 11.6116C24.4807 11.7591 24.2963 11.9698 24.1699 12.2437L22.5106 11.5168Z" fill="#003368"/>
<path d="M34.8108 14.4403L32.867 14.6931C32.0347 14.7879 31.6186 15.0935 31.6186 15.6097C31.6186 15.8941 31.7292 16.1154 31.9504 16.2734C32.1822 16.4209 32.4983 16.4947 32.8986 16.4947C33.4781 16.4947 33.9416 16.3366 34.2893 16.0206C34.6369 15.694 34.8108 15.2726 34.8108 14.7563H35.3639C35.3639 15.694 35.0794 16.4736 34.5105 17.0952C33.9521 17.7167 33.2463 18.0275 32.3929 18.0275C31.6555 18.0275 31.0497 17.8168 30.5756 17.3954C30.112 16.9635 29.8803 16.4104 29.8803 15.7361C29.8803 15.0619 30.112 14.4982 30.5756 14.0452C31.0497 13.5922 31.6818 13.3183 32.4719 13.2235L34.8108 12.9548V12.781C34.8108 12.3912 34.6475 12.0593 34.3209 11.7854C34.0048 11.5115 33.6203 11.3745 33.1673 11.3745C32.7564 11.3745 32.3877 11.4852 32.0611 11.7064C31.7345 11.9276 31.529 12.2068 31.4447 12.5439L29.8171 12.0066C30.0278 11.3429 30.4334 10.8056 31.0339 10.3948C31.6449 9.98389 32.3297 9.77845 33.0882 9.77845C34.0259 9.77845 34.8371 10.0682 35.5219 10.6476C36.2067 11.2165 36.5491 11.8908 36.5491 12.6704V17.8537H34.8108V14.4403Z" fill="#003368"/>
<path d="M42.1072 8.78287C41.3171 8.78287 40.6428 8.53003 40.0845 8.02434C39.5366 7.50811 39.2627 6.88126 39.2627 6.1438H40.6376C40.6376 6.54414 40.7745 6.876 41.0484 7.13938C41.3329 7.39222 41.6911 7.51864 42.123 7.51864C42.5655 7.51864 42.9395 7.38695 43.245 7.12357C43.5505 6.84966 43.7033 6.52307 43.7033 6.1438H45.0781C45.0781 6.84966 44.7832 7.46597 44.1932 7.99273C43.6032 8.51949 42.9079 8.78287 42.1072 8.78287ZM45.8683 17.8537H44.13V12.1331L40.3057 17.8537H38.2829V9.95228H40.0212V15.5149L43.8455 9.95228H45.8683V17.8537Z" fill="#003368"/>
<path d="M47.6041 17.8537V9.95228H49.3424V13.0812H53.5302V9.95228H55.2685V17.8537H53.5302V14.6931H49.3424V17.8537H47.6041Z" fill="#003368"/>
<path d="M63.411 12.0225C62.9264 12.5071 62.6841 13.1286 62.6841 13.8872C62.6841 14.6457 62.9264 15.2673 63.411 15.7519C63.8957 16.2365 64.4909 16.4788 65.1968 16.4788C65.7024 16.4788 66.1607 16.3524 66.5716 16.0996C66.993 15.8467 67.3091 15.5043 67.5198 15.0724L69.1159 15.7993C68.7577 16.5157 68.2256 17.0846 67.5198 17.506C66.8244 17.9274 66.0501 18.1381 65.1968 18.1381C64.0168 18.1381 63.0107 17.7378 62.1784 16.9371C61.3567 16.1365 60.9458 15.1198 60.9458 13.8872C60.9458 12.6546 61.3567 11.6379 62.1784 10.8372C63.0107 10.0366 64.0168 9.63622 65.1968 9.63622C66.0712 9.63622 66.8613 9.8522 67.5672 10.2841C68.273 10.7161 68.7998 11.3061 69.1475 12.0541L67.5514 12.7968C67.3512 12.3227 67.0404 11.954 66.619 11.6906C66.1976 11.4272 65.7235 11.2955 65.1968 11.2955C64.4909 11.2955 63.8957 11.5378 63.411 12.0225Z" fill="#003368"/>
<path d="M72.7326 12.0225C72.2375 12.5071 71.9899 13.1286 71.9899 13.8872C71.9899 14.6457 72.2375 15.2673 72.7326 15.7519C73.2383 16.2365 73.8546 16.4788 74.5815 16.4788C75.3085 16.4788 75.9195 16.2365 76.4147 15.7519C76.9203 15.2673 77.1732 14.6457 77.1732 13.8872C77.1732 13.1286 76.9203 12.5071 76.4147 12.0225C75.9195 11.5378 75.3085 11.2955 74.5815 11.2955C73.8546 11.2955 73.2383 11.5378 72.7326 12.0225ZM71.5 16.9371C70.6677 16.1365 70.2515 15.1198 70.2515 13.8872C70.2515 12.6546 70.6677 11.6379 71.5 10.8372C72.3428 10.0366 73.37 9.63622 74.5815 9.63622C75.7931 9.63622 76.815 10.0366 77.6473 10.8372C78.4901 11.6379 78.9115 12.6546 78.9115 13.8872C78.9115 15.1198 78.4901 16.1365 77.6473 16.9371C76.815 17.7378 75.7931 18.1381 74.5815 18.1381C73.37 18.1381 72.3428 17.7378 71.5 16.9371Z" fill="#003368"/>
<path d="M84.9824 11.501H82.0747V13.2077H85.1088C85.3827 13.2077 85.6092 13.1339 85.7883 12.9864C85.978 12.8284 86.0728 12.6388 86.0728 12.4175C86.0728 12.1541 85.9674 11.9382 85.7567 11.7696C85.5566 11.5905 85.2985 11.501 84.9824 11.501ZM85.1404 14.5509H82.0747V16.305H85.1404C85.4459 16.305 85.7041 16.2207 85.9148 16.0522C86.1255 15.8836 86.2308 15.6782 86.2308 15.4359C86.2308 15.183 86.1255 14.9723 85.9148 14.8037C85.7146 14.6352 85.4565 14.5509 85.1404 14.5509ZM85.2985 17.8537H80.3364V9.95228H85.1404C85.9095 9.95228 86.5469 10.1577 87.0526 10.5686C87.5582 10.9795 87.8111 11.4904 87.8111 12.1015C87.8111 12.4597 87.7163 12.781 87.5266 13.0654C87.3475 13.3499 87.0947 13.5711 86.7681 13.7292C87.1368 13.9188 87.4266 14.1874 87.6373 14.5351C87.8585 14.8722 87.9691 15.2515 87.9691 15.6729C87.9691 16.2945 87.7163 16.816 87.2106 17.2374C86.7049 17.6483 86.0675 17.8537 85.2985 17.8537Z" fill="#003368"/>
<path d="M95.6057 13.097C95.5214 12.5281 95.2581 12.0804 94.8156 11.7538C94.3836 11.4167 93.8569 11.2481 93.2353 11.2481C92.6348 11.2481 92.1238 11.4114 91.7024 11.738C91.281 12.0646 91.0176 12.5176 90.9123 13.097H95.6057ZM90.9123 14.6615C91.0176 15.241 91.2863 15.6992 91.7182 16.0364C92.1502 16.363 92.6717 16.5263 93.2827 16.5263C93.7463 16.5263 94.1677 16.4209 94.5469 16.2102C94.9367 15.9995 95.2264 15.7098 95.4161 15.341L97.0122 15.9574C96.675 16.6211 96.1694 17.1531 95.4951 17.5534C94.8314 17.9432 94.0992 18.1381 93.2985 18.1381C92.108 18.1381 91.1072 17.7378 90.296 16.9371C89.4848 16.1259 89.0791 15.104 89.0791 13.8714C89.0791 12.6598 89.4742 11.6537 90.2644 10.853C91.0545 10.0418 92.029 9.63622 93.1879 9.63622C94.3573 9.63622 95.3476 10.0366 96.1588 10.8372C96.97 11.6379 97.3756 12.6388 97.3756 13.8398C97.3756 14.0716 97.3388 14.3455 97.265 14.6615H90.9123Z" fill="#003368"/>
<path d="M105.194 9.95228V11.58H102.665V17.8537H100.927V11.58H98.3985V9.95228H105.194Z" fill="#003368"/>
<path d="M111.155 14.4403L109.211 14.6931C108.379 14.7879 107.963 15.0935 107.963 15.6097C107.963 15.8941 108.074 16.1154 108.295 16.2734C108.527 16.4209 108.843 16.4947 109.243 16.4947C109.822 16.4947 110.286 16.3366 110.634 16.0206C110.981 15.694 111.155 15.2726 111.155 14.7563H111.708C111.708 15.694 111.424 16.4736 110.855 17.0952C110.296 17.7167 109.591 18.0275 108.737 18.0275C108 18.0275 107.394 17.8168 106.92 17.3954C106.456 16.9635 106.225 16.4104 106.225 15.7361C106.225 15.0619 106.456 14.4982 106.92 14.0452C107.394 13.5922 108.026 13.3183 108.816 13.2235L111.155 12.9548V12.781C111.155 12.3912 110.992 12.0593 110.665 11.7854C110.349 11.5115 109.965 11.3745 109.512 11.3745C109.101 11.3745 108.732 11.4852 108.405 11.7064C108.079 11.9276 107.873 12.2068 107.789 12.5439L106.161 12.0066C106.372 11.3429 106.778 10.8056 107.378 10.3948C107.989 9.98389 108.674 9.77845 109.433 9.77845C110.37 9.77845 111.181 10.0682 111.866 10.6476C112.551 11.2165 112.893 11.8908 112.893 12.6704V17.8537H111.155V14.4403Z" fill="#003368"/>
<path d="M0.890477 31.9498C1.28028 31.9498 1.58053 31.8287 1.79124 31.5864C2.01248 31.344 2.1231 31.0332 2.1231 30.654V25.7551H8.12817V33.6565H6.38986V27.4618H3.86141V30.8752C3.86141 31.6338 3.59803 32.2869 3.07127 32.8348C2.55504 33.3826 1.88079 33.6565 1.04851 33.6565H0.511209V31.9498H0.890477Z" fill="#003368"/>
<path d="M17.4571 33.6565H15.7188V27.9359L11.8946 33.6565H9.87179V25.7551H11.6101V31.3177L15.4344 25.7551H17.4571V33.6565Z" fill="#003368"/>
<path d="M19.193 33.6565V25.7551H20.9313V32.0288H24.882V25.7551H26.6203V32.0288H27.6001V35.4897H25.8618V33.6565H19.193Z" fill="#003368"/>
<path d="M35.1568 28.8999C35.0725 28.331 34.8092 27.8832 34.3667 27.5566C33.9347 27.2195 33.408 27.0509 32.7864 27.0509C32.1859 27.0509 31.6749 27.2142 31.2535 27.5408C30.8321 27.8674 30.5687 28.3204 30.4634 28.8999H35.1568ZM30.4634 30.4643C30.5687 31.0438 30.8374 31.5021 31.2693 31.8392C31.7013 32.1658 32.2228 32.3291 32.8338 32.3291C33.2973 32.3291 33.7188 32.2237 34.098 32.013C34.4878 31.8023 34.7775 31.5126 34.9672 31.1439L36.5633 31.7602C36.2261 32.4239 35.7205 32.9559 35.0462 33.3563C34.3825 33.7461 33.6503 33.941 32.8496 33.941C31.6591 33.941 30.6583 33.5406 29.8471 32.74C29.0358 31.9287 28.6302 30.9068 28.6302 29.6742C28.6302 28.4627 29.0253 27.4565 29.8155 26.6559C30.6056 25.8447 31.5801 25.439 32.739 25.439C33.9084 25.439 34.8987 25.8394 35.7099 26.6401C36.5211 27.4407 36.9267 28.4416 36.9267 29.6426C36.9267 29.8744 36.8899 30.1483 36.8161 30.4643H30.4634Z" fill="#003368"/>
<path d="M45.93 33.6565H44.1917V27.9359L40.3674 33.6565H38.3447V25.7551H40.083V31.3177L43.9073 25.7551H45.93V33.6565Z" fill="#003368"/>
<path d="M49.815 27.8253C49.3304 28.3099 49.0881 28.9315 49.0881 29.69C49.0881 30.4485 49.3304 31.0701 49.815 31.5547C50.2997 32.0394 50.8949 32.2817 51.6008 32.2817C52.1065 32.2817 52.5647 32.1553 52.9756 31.9024C53.397 31.6496 53.7131 31.3072 53.9238 30.8752L55.5199 31.6022C55.1617 32.3185 54.6296 32.8875 53.9238 33.3089C53.2285 33.7303 52.4541 33.941 51.6008 33.941C50.4208 33.941 49.4147 33.5406 48.5824 32.74C47.7607 31.9393 47.3498 30.9226 47.3498 29.69C47.3498 28.4574 47.7607 27.4407 48.5824 26.6401C49.4147 25.8394 50.4208 25.439 51.6008 25.439C52.4752 25.439 53.2653 25.655 53.9712 26.087C54.677 26.5189 55.2038 27.1089 55.5515 27.8569L53.9554 28.5996C53.7552 28.1255 53.4444 27.7568 53.023 27.4934C52.6016 27.23 52.1275 27.0983 51.6008 27.0983C50.8949 27.0983 50.2997 27.3407 49.815 27.8253Z" fill="#003368"/>
<path d="M63.3718 25.7551V27.3828H60.8433V33.6565H59.105V27.3828H56.5766V25.7551H63.3718Z" fill="#003368"/>
<path d="M66.8837 27.8253C66.3886 28.3099 66.141 28.9315 66.141 29.69C66.141 30.4485 66.3886 31.0701 66.8837 31.5547C67.3894 32.0394 68.0057 32.2817 68.7326 32.2817C69.4596 32.2817 70.0706 32.0394 70.5658 31.5547C71.0715 31.0701 71.3243 30.4485 71.3243 29.69C71.3243 28.9315 71.0715 28.3099 70.5658 27.8253C70.0706 27.3407 69.4596 27.0983 68.7326 27.0983C68.0057 27.0983 67.3894 27.3407 66.8837 27.8253ZM65.6511 32.74C64.8188 31.9393 64.4027 30.9226 64.4027 29.69C64.4027 28.4574 64.8188 27.4407 65.6511 26.6401C66.4939 25.8394 67.5211 25.439 68.7326 25.439C69.9442 25.439 70.9661 25.8394 71.7984 26.6401C72.6412 27.4407 73.0626 28.4574 73.0626 29.69C73.0626 30.9226 72.6412 31.9393 71.7984 32.74C70.9661 33.5406 69.9442 33.941 68.7326 33.941C67.5211 33.941 66.4939 33.5406 65.6511 32.74Z" fill="#003368"/>
<path d="M79.1335 27.3038H76.2258V29.0105H79.2599C79.5338 29.0105 79.7603 28.9367 79.9394 28.7893C80.1291 28.6312 80.2239 28.4416 80.2239 28.2203C80.2239 27.957 80.1185 27.741 79.9078 27.5724C79.7077 27.3933 79.4495 27.3038 79.1335 27.3038ZM79.2915 30.3537H76.2258V32.1078H79.2915C79.597 32.1078 79.8552 32.0236 80.0659 31.855C80.2766 31.6864 80.3819 31.481 80.3819 31.2387C80.3819 30.9858 80.2766 30.7751 80.0659 30.6066C79.8657 30.438 79.6076 30.3537 79.2915 30.3537ZM79.4495 33.6565H74.4875V25.7551H79.2915C80.0606 25.7551 80.698 25.9605 81.2037 26.3714C81.7094 26.7823 81.9622 27.2933 81.9622 27.9043C81.9622 28.2625 81.8674 28.5838 81.6777 28.8683C81.4986 29.1527 81.2458 29.374 80.9192 29.532C81.2879 29.7216 81.5777 29.9903 81.7884 30.3379C82.0096 30.6751 82.1202 31.0543 82.1202 31.4757C82.1202 32.0973 81.8674 32.6188 81.3617 33.0402C80.856 33.4511 80.2186 33.6565 79.4495 33.6565Z" fill="#003368"/>
<path d="M5.67873 42.7431C6.52155 42.8696 7.19581 43.233 7.7015 43.8335C8.21772 44.434 8.47584 45.1873 8.47584 46.0933C8.47584 47.1363 8.1071 47.9897 7.36964 48.6534C6.63217 49.3066 5.684 49.6332 4.52513 49.6332C3.54535 49.6332 2.70254 49.3645 1.99668 48.8272C1.29082 48.2899 0.811463 47.5683 0.558618 46.6622L2.18631 46.1091C2.31273 46.6675 2.58138 47.1047 2.99225 47.4208C3.40313 47.7368 3.90882 47.8949 4.50933 47.8949C5.16251 47.8949 5.69454 47.7263 6.10541 47.3892C6.52682 47.0521 6.73752 46.6148 6.73752 46.0775C6.73752 45.3928 6.48468 44.8555 5.97899 44.4657C5.4733 44.0653 4.76744 43.8652 3.86141 43.8652L3.46634 42.6483L6.46888 40.0883H0.700843V38.3974H8.47584V40.4043L5.67873 42.7431Z" fill="#003368"/>
<path d="M11.3249 44.355C11.3249 45.4191 11.5988 46.2935 12.1467 46.9783C12.6945 47.6631 13.3635 48.0055 14.1536 48.0055C14.9438 48.0055 15.6127 47.6631 16.1606 46.9783C16.7084 46.2935 16.9823 45.4191 16.9823 44.355V43.5175C16.9823 42.4534 16.7084 41.579 16.1606 40.8942C15.6127 40.2094 14.9438 39.867 14.1536 39.867C13.3635 39.867 12.6945 40.2094 12.1467 40.8942C11.5988 41.579 11.3249 42.4534 11.3249 43.5175V44.355ZM9.5866 44.355V43.5175C9.5866 41.9583 10.0291 40.673 10.914 39.6616C11.799 38.6397 12.8789 38.1287 14.1536 38.1287C15.4284 38.1287 16.5082 38.6397 17.3932 39.6616C18.2782 40.673 18.7206 41.9583 18.7206 43.5175V44.355C18.7206 45.9142 18.2782 47.2048 17.3932 48.2267C16.5082 49.2381 15.4284 49.7438 14.1536 49.7438C12.8789 49.7438 11.799 49.2381 10.914 48.2267C10.0291 47.2048 9.5866 45.9142 9.5866 44.355Z" fill="#003368"/>
<path d="M20.1498 49.4593V41.5579H21.8881V44.6395H22.3148L25.1277 41.5579H27.3717L23.8161 45.5086L27.3717 49.4593H25.1277L22.3148 46.4252H21.8881V49.4593H20.1498Z" fill="#003368"/>
<path d="M36.2384 49.4593H34.5001V43.7387L30.6758 49.4593H28.6531V41.5579H30.3914V47.1205L34.2157 41.5579H36.2384V49.4593Z" fill="#003368"/>
<defs>
<linearGradient id="paint0_linear_178_21737" x1="148.613" y1="20.1805" x2="113.076" y2="38.222" gradientUnits="userSpaceOnUse">
<stop stop-color="#9EDBF4"/>
<stop offset="1" stop-color="#15A6DA"/>
</linearGradient>
<linearGradient id="paint1_linear_178_21737" x1="148.612" y1="20.1806" x2="113.076" y2="38.222" gradientUnits="userSpaceOnUse">
<stop stop-color="#9EDBF4"/>
<stop offset="1" stop-color="#15A6DA"/>
</linearGradient>
<linearGradient id="paint2_linear_178_21737" x1="148.613" y1="20.1807" x2="113.076" y2="38.2222" gradientUnits="userSpaceOnUse">
<stop stop-color="#9EDBF4"/>
<stop offset="1" stop-color="#15A6DA"/>
</linearGradient>
<linearGradient id="paint3_linear_178_21737" x1="149.03" y1="17.0256" x2="149" y2="38.5681" gradientUnits="userSpaceOnUse">
<stop stop-color="#96D8F3"/>
<stop offset="1" stop-color="#16A6DA"/>
</linearGradient>
</defs>
</svg>
